<svg width="702" height="105" viewBox="0 0 702 105" fill="none" xmlns="http://www.w3.org/2000/svg">
<path d="M210.913 0.000976562C212.525 0.00097648 213.332 0.0005457 214.023 0.265625C214.634 0.4998 215.178 0.88087 215.607 1.37402C216.093 1.93243 216.37 2.68992 216.923 4.2041L250.295 95.5254C251.351 98.4166 251.879 99.8631 251.614 101.019C251.381 102.029 250.765 102.91 249.895 103.476C248.901 104.122 247.362 104.122 244.284 104.122L182.579 104.123L120.874 104.122C117.795 104.122 116.255 104.122 115.261 103.476C114.392 102.91 113.775 102.029 113.543 101.019C113.277 99.8631 113.805 98.4167 114.862 95.5254L148.232 4.2041C148.785 2.69006 149.062 1.93241 149.548 1.37402C149.978 0.880988 150.522 0.499749 151.132 0.265625C151.824 0.000707167 152.631 0.000976563 154.243 0.000976562H210.913ZM306.214 0.000976562C308.454 0.000976562 309.575 0.00167895 310.43 0.4375C311.183 0.820993 311.796 1.4329 312.179 2.18555C312.615 3.04115 312.615 4.16144 312.615 6.40137V97.7236C312.615 99.9636 312.615 101.084 312.179 101.939C311.796 102.692 311.183 103.304 310.43 103.688C309.575 104.123 308.454 104.123 306.214 104.123H263.556C261.316 104.123 260.196 104.123 259.34 103.688C258.588 103.304 257.976 102.692 257.592 101.939C257.156 101.084 257.156 99.9637 257.156 97.7236V6.40137C257.156 4.16116 257.156 3.04119 257.592 2.18555C257.976 1.4329 258.588 0.820993 259.34 0.4375C260.196 0.00161723 261.316 0.000976562 263.556 0.000976562H306.214ZM130.809 0.000976562C133.887 0.00101902 135.426 0.00136776 136.421 0.647461C137.29 1.21275 137.907 2.09368 138.139 3.10449C138.405 4.25995 137.876 5.70642 136.82 8.59766L103.45 99.9189C102.897 101.433 102.619 102.191 102.133 102.749C101.704 103.242 101.16 103.623 100.549 103.857C99.858 104.123 99.0512 104.122 97.4391 104.122H40.7682C39.1561 104.122 38.3492 104.122 37.6578 103.857C37.0471 103.623 36.5034 103.242 36.0739 102.749C35.5875 102.191 35.3108 101.433 34.7574 99.9189L1.38733 8.59766C0.330774 5.70623 -0.197688 4.25999 0.0679932 3.10449C0.300514 2.09375 0.917167 1.21273 1.78674 0.647461C2.7809 0.00162285 4.321 0.00101898 7.39905 0.000976562L56.4869 0L69.1041 29.5547L81.7194 0L130.809 0.000976562ZM449.816 0.000976562C452.894 0.00101899 454.433 0.00144751 455.427 0.647461C456.297 1.21273 456.914 2.09366 457.146 3.10449C457.412 4.25997 456.883 5.70632 455.827 8.59766L422.457 99.9189C421.903 101.433 421.626 102.191 421.14 102.749C420.711 103.242 420.167 103.623 419.556 103.857C418.865 104.123 418.058 104.122 416.446 104.122H359.775C358.163 104.122 357.356 104.123 356.665 103.857C356.054 103.623 355.51 103.242 355.081 102.749C354.594 102.191 354.318 101.433 353.764 99.9189L320.394 8.59766C319.338 5.70633 318.809 4.25997 319.075 3.10449C319.307 2.0937 319.924 1.21274 320.794 0.647461C321.788 0.00141423 323.328 0.00101899 326.406 0.000976562L375.494 0L388.111 29.5547L400.726 0L449.816 0.000976562ZM560.319 0C562.559 8.21396e-08 563.68 0.000581177 564.536 0.436523C565.288 0.820022 565.9 1.43218 566.284 2.18457C566.72 3.04013 566.719 4.16069 566.719 6.40039V35.2344L562.798 38.1309H513.519C511.658 38.1309 510.149 39.6398 510.149 41.501C510.149 43.3623 511.658 44.871 513.519 44.8711H562.798L566.719 47.7666V63.7979L562.798 66.6943H513.519C511.658 66.6944 510.149 68.2033 510.149 70.0645C510.149 71.9258 511.658 73.4345 513.519 73.4346H562.798L566.719 76.3301V97.7227C566.719 99.9622 566.719 101.083 566.284 101.938C565.9 102.691 565.288 103.303 564.536 103.687C563.68 104.122 562.559 104.122 560.319 104.122H507.054C498.636 104.122 494.426 104.123 490.909 103.535C472.798 100.51 458.606 86.3173 455.581 68.2061C454.993 64.6885 454.993 60.4792 454.993 52.0615C454.993 43.6435 454.993 39.4336 455.581 35.916C458.606 17.8051 472.798 3.61304 490.909 0.587891C494.426 0.000429405 498.636 0 507.054 0H560.319ZM644.937 22.0752V0H695.233C697.473 0 698.593 0.000851679 699.449 0.436523C700.201 0.819944 700.813 1.43212 701.197 2.18457C701.633 3.04017 701.633 4.16042 701.633 6.40039V97.7227C701.633 99.9626 701.633 101.083 701.197 101.938C700.813 102.691 700.201 103.303 699.449 103.687C698.593 104.122 697.473 104.122 695.233 104.122H656.994L631.593 78.2021V104.122H581.278C579.038 104.122 577.918 104.122 577.062 103.687C576.31 103.303 575.698 102.691 575.314 101.938C574.878 101.083 574.879 99.9624 574.879 97.7227V6.40039C574.879 4.16058 574.878 3.04015 575.314 2.18457C575.698 1.43209 576.31 0.819997 577.062 0.436523C577.918 0.000586539 579.038 5.30623e-08 581.278 0H623.304L644.937 22.0752ZM182.579 86.626L191.884 57.7783H173.273L182.579 86.626Z" fill="#1E1E1E"/>
</svg>
