<svg width="689" height="105" viewBox="0 0 689 105" fill="none" xmlns="http://www.w3.org/2000/svg">
<path d="M306.215 0.000977206C308.455 0.000977228 309.576 0.00163823 310.431 0.437501C311.184 0.820986 311.796 1.43303 312.179 2.18555C312.615 3.04114 312.616 4.16153 312.616 6.40137V97.7236C312.616 99.9635 312.615 101.084 312.179 101.939C311.796 102.692 311.184 103.304 310.431 103.688C309.576 104.123 308.455 104.123 306.215 104.123H263.556C261.317 104.123 260.196 104.123 259.34 103.688C258.588 103.304 257.976 102.692 257.592 101.939C257.156 101.084 257.157 99.9633 257.157 97.7236V6.40137C257.157 4.16164 257.157 3.04112 257.592 2.18555C257.976 1.43307 258.588 0.821011 259.34 0.437501C260.196 0.00156868 261.316 0.00097725 263.556 0.000977206H306.215Z" fill="#171717"/>
<path d="M546.479 0.00195377C548.719 0.00195377 549.84 0.00152671 550.696 0.437501C551.448 0.82096 552.06 1.43303 552.444 2.18555C552.88 3.04119 552.879 4.16213 552.879 6.40234V15.9209C552.879 17.3323 552.88 18.0386 552.667 18.6641C552.48 19.2173 552.172 19.7235 551.768 20.1455C551.311 20.6225 550.684 20.9483 549.432 21.5996L498.203 48.2412C495.553 49.6192 494.227 50.3082 493.796 51.2314C493.421 52.0354 493.421 52.9646 493.796 53.7686C494.227 54.6918 495.553 55.3808 498.203 56.7588L549.432 83.3994C550.685 84.0507 551.311 84.3765 551.768 84.8535C552.172 85.2755 552.48 85.7817 552.667 86.335C552.88 86.9604 552.879 87.6667 552.879 89.0781V97.7227C552.879 99.9629 552.88 101.084 552.444 101.939C552.06 102.692 551.448 103.304 550.696 103.688C549.84 104.123 548.728 104.123 546.506 104.123C524.864 104.123 473.208 104.123 473.208 104.123C471.597 104.123 470.789 104.123 470.098 103.858C469.488 103.624 468.944 103.243 468.514 102.75C468.028 102.192 467.751 101.434 467.198 99.9199L451.717 57.5527C450.974 55.5194 450.603 54.5025 450.456 53.458C450.325 52.5316 450.325 51.5915 450.456 50.665C450.603 49.6205 450.974 48.6036 451.717 46.5703L467.198 4.20508C467.751 2.69166 468.028 1.93332 468.514 1.375C468.943 0.8822 469.488 0.500741 470.098 0.266602C470.789 0.00170603 471.597 0.0019535 473.208 0.00195377H546.479Z" fill="#171717"/>
<path d="M130.809 0.000977206C133.887 0.00101964 135.426 0.00161552 136.42 0.647462C137.29 1.21272 137.907 2.09379 138.139 3.10449C138.405 4.25992 137.876 5.7066 136.82 8.59766L103.45 99.9189C102.897 101.433 102.619 102.191 102.133 102.749C101.704 103.242 101.16 103.623 100.549 103.857C99.8579 104.122 99.0512 104.122 97.439 104.122H40.7681C39.1562 104.122 38.3491 104.122 37.6577 103.857C37.0473 103.623 36.5032 103.242 36.0737 102.749C35.5877 102.191 35.3105 101.433 34.7573 99.9189L1.38722 8.59766C0.330835 5.70671 -0.197602 4.2599 0.0678805 3.10449C0.300358 2.09378 0.91714 1.21276 1.78663 0.647462C2.78073 0.00138378 4.32071 0.00101966 7.39894 0.000977206L53.3169 6.43942e-07C54.4629 -2.21536e-05 55.0362 -0.000329137 55.5347 0.181641C55.9751 0.342499 56.3719 0.604456 56.6929 0.94629C57.056 1.33325 57.281 1.86094 57.731 2.91504L64.689 19.2129C66.0794 22.4699 66.775 24.0984 67.7534 24.5918C68.6027 25.0199 69.6053 25.0199 70.4546 24.5918C71.4328 24.0983 72.128 22.4696 73.5181 19.2129L80.4741 2.91504C80.9241 1.86093 81.1501 1.33426 81.5132 0.947266C81.8341 0.605263 82.2309 0.342583 82.6714 0.181641C83.1698 -0.000347748 83.7432 -2.21968e-05 84.8892 6.43942e-07L130.809 0.000977206Z" fill="#171717"/>
<path fill-rule="evenodd" clip-rule="evenodd" d="M210.913 0.000977206C212.525 0.000977187 213.332 0.000695795 214.023 0.265626C214.633 0.499738 215.177 0.881047 215.607 1.37402C216.093 1.93237 216.37 2.69032 216.923 4.2041L250.294 95.5254C251.351 98.4165 251.879 99.8631 251.614 101.019C251.381 102.029 250.765 102.91 249.895 103.476C248.901 104.122 247.362 104.122 244.284 104.122H120.874C117.796 104.122 116.255 104.122 115.261 103.476C114.392 102.91 113.775 102.029 113.542 101.019C113.277 99.8631 113.805 98.4164 114.862 95.5254L148.232 4.2041C148.785 2.69016 149.062 1.93241 149.548 1.37402C149.978 0.880904 150.522 0.499802 151.132 0.265626C151.824 0.000532955 152.631 0.00097714 154.243 0.000977206H210.913ZM179.865 57.7783C177.637 57.7783 176.522 57.7782 175.787 58.2441C175.143 58.6521 174.678 59.2896 174.488 60.0273C174.27 60.8702 174.612 61.9311 175.296 64.0518L179.533 77.1846C180.456 80.0479 180.919 81.4804 181.614 81.8633C182.214 82.1939 182.943 82.1939 183.543 81.8633C184.238 81.4805 184.7 80.0481 185.624 77.1846L189.861 64.0518C190.545 61.931 190.886 60.8702 190.668 60.0273C190.478 59.2896 190.013 58.652 189.37 58.2441C188.634 57.7784 187.52 57.7783 185.292 57.7783H179.865Z" fill="#171717"/>
<path d="M449.817 0.000977206C452.895 0.00101966 454.434 0.00148541 455.428 0.647462C456.298 1.21275 456.914 2.09379 457.147 3.10449C457.412 4.2599 456.884 5.70671 455.828 8.59766L422.458 99.9189C421.904 101.433 421.627 102.191 421.141 102.749C420.712 103.242 420.168 103.623 419.557 103.857C418.866 104.122 418.059 104.122 416.447 104.122H359.776C358.164 104.122 357.357 104.122 356.666 103.857C356.055 103.623 355.511 103.242 355.082 102.749C354.595 102.191 354.318 101.433 353.765 99.9189L320.395 8.59766C319.339 5.7066 318.81 4.25992 319.076 3.10449C319.308 2.09383 319.925 1.21273 320.794 0.647462C321.789 0.00161266 323.329 0.00101966 326.407 0.000977206L372.325 6.43942e-07C373.471 -2.21535e-05 374.044 -0.000325575 374.542 0.181641C374.983 0.342498 375.38 0.604459 375.701 0.94629C376.064 1.33325 376.289 1.86095 376.739 2.91504L383.697 19.2129C385.087 22.4699 385.783 24.0984 386.761 24.5918C387.611 25.0199 388.613 25.0199 389.462 24.5918C390.441 24.0983 391.136 22.4696 392.526 19.2129L399.482 2.91504C399.932 1.86093 400.158 1.33426 400.521 0.947266C400.842 0.605265 401.239 0.342583 401.679 0.181641C402.178 -0.000349402 402.751 -2.21984e-05 403.897 6.43942e-07L449.817 0.000977206Z" fill="#171717"/>
<path d="M608.289 6.43942e-07C609.032 6.45518e-07 609.404 5.01648e-05 609.753 0.0849616C610.063 0.16033 610.36 0.284638 610.63 0.453126C610.936 0.643208 611.196 0.909292 611.716 1.44043L623.709 13.6787C626.285 16.3069 627.573 17.6205 628.681 17.7158C629.642 17.7983 630.585 17.4141 631.213 16.6826C631.938 15.8393 631.938 13.9986 631.938 10.3184V4.79981C631.938 3.11972 631.938 2.27942 632.265 1.6377C632.553 1.07332 633.011 0.613778 633.576 0.326173C634.217 -0.000767171 635.058 5.78289e-07 636.738 6.43942e-07H682.234C684.474 6.90174e-07 685.594 0.000805259 686.45 0.436524C687.202 0.819964 687.814 1.43218 688.198 2.18457C688.634 3.04013 688.634 4.16073 688.634 6.40039V97.7227C688.634 99.9622 688.634 101.083 688.198 101.938C687.814 102.691 687.202 103.303 686.45 103.687C685.594 104.122 684.474 104.122 682.234 104.122H646.011C645.267 104.122 644.895 104.122 644.545 104.037C644.236 103.962 643.94 103.837 643.669 103.669C643.364 103.479 643.103 103.213 642.583 102.682L626.823 86.5986C624.247 83.9705 622.959 82.656 621.851 82.5605C620.89 82.4781 619.947 82.8624 619.319 83.5938C618.594 84.4371 618.594 86.2778 618.594 89.958V99.3213C618.594 101.001 618.594 101.842 618.267 102.483C617.979 103.048 617.52 103.507 616.956 103.795C616.314 104.122 615.474 104.122 613.794 104.122H568.279C566.039 104.122 564.919 104.122 564.063 103.687C563.311 103.303 562.698 102.691 562.315 101.938C561.879 101.083 561.879 99.9622 561.879 97.7227V6.40039C561.879 4.16084 561.879 3.04011 562.315 2.18457C562.698 1.43219 563.311 0.819976 564.063 0.436524C564.919 0.000681311 566.039 6.87459e-07 568.279 6.43942e-07H608.289Z" fill="#171717"/>
<path d="M536.379 35.5625C545.492 35.5625 552.879 42.9498 552.879 52.0625C552.879 61.1752 545.492 68.5625 536.379 68.5625C527.267 68.5625 519.879 61.1752 519.879 52.0625C519.879 42.9498 527.267 35.5625 536.379 35.5625Z" fill="#171717"/>
</svg>
